<?xml version="1.0" encoding="UTF-8" standalone="no"?>
<?xml-stylesheet type="text/css" href="fakeiteasy.css" ?>
<!DOCTYPE svg PUBLIC "-//W3C//DTD SVG 1.1//EN" "http://www.w3.org/Graphics/SVG/1.1/DTD/svg11.dtd">
<svg xmlns="http://www.w3.org/2000/svg" xmlns:xlink="http://www.w3.org/1999/xlink" version="1.1" width="510.236pt" height="510.236pt" viewBox="0 0 510.236 510.236">
<g enable-background="new">
<g id="Layer-1" data-name="Ebene 1">
<path
  transform="matrix(1,0,0,-1,131.145,248.85898)"
  d="M 0 0 L 67.815 0 L 67.83 40.255 L 165.498 40.255 L 165.498 82.268 L 67.83 82.268 L 67.83 106.922 L 173.912 106.922 L 151.384 148.94 L 0 148.94 Z "
  class="fie-logo-f"/>
<path
  transform="matrix(1,0,0,-1,316.7905,206.1735)"
  d="M 0 0 L 17.005 -19.8 L 17.005 -42.714 L 68.55 -42.752 L 68.55 106.256 L 17.005 106.256 L 17.005 45.398 L -30.859 106.256 L -105.072 106.259 L -40.939 39.596 L -104.166 -42.766 L -35.621 -42.688 Z "
  class="fie-logo-k"/>
<path
  transform="matrix(1,0,0,-1,0,510.236)"
  d="M 131.145 261.475 L 198.975 261.475 L 198.975 120.8 L 131.145 120.8 Z "
  class="fie-logo-i"/>
<path
  transform="matrix(1,0,0,-1,258.2983,292.235)"
  d="M 0 0 L -59.335 0 L -59.335 43.474 L 127.042 43.31 L 127.036 -.16 L 69.223 0 L 69.223 -97.203 L 0 -97.203 Z "
  class="fie-logo-t"/>
</g>
</g>
</svg>
